<?xml version="1.0" encoding="UTF-8"?>
<svg id="_Слой_1" data-name="Слой 1" xmlns="http://www.w3.org/2000/svg" viewBox="0 0 1000 1000">
  <defs>
    <style>
      .cls-1 {
        fill: #fff;
      }
    </style>
  </defs>
  <rect width="1000" height="1000"/>
  <g>
    <path class="cls-1" d="M532.77,411.93c1.8-11.36,3.01-23.34,4.11-34.82l-68.65-2.02,5.15-34.84h71.68l-6.14,34.82h34.82l6.15-34.83c38.72,4.03,73.18,21.41,92.51,55.98,8.16,14.59,16.03,39.08,16.03,55.65v117.77h-40.96c-3.94,21.33-4.74,51.67-11.23,71.72-2.4,7.41-12.8,18.4-20.51,18.4h-91.14l4.1-34.82h-34.82l-7.17,34.82h-68.61l6.14-34.82h-34.82l4.1-36.87h-34.82l6.14-34.82h36.87l-6.15,34.82c11.58.07,23.24-.08,34.83,0-1.87,11.57-4.67,23.15-6.16,34.81l68.36-.26c4.9-1.66,6.61-28.19,7.45-34.53,12.25,0,24.59-.08,36.85-.02-.94,5.77-7.95,34.39-6.12,36.87l33.44-1.85,7.5-35c-11.58-.06-23.23.04-34.81-.01,1.88-11.58,1.82-23.67,6.14-34.8-12.26-.1-24.6.06-36.87-.02,2.08-11.52,6.02-22.93,6.14-34.82h-34.82l-6.14,34.8c11.58.08,23.23-.06,34.81.01-1.05,5.82-2.76,31.59-6.01,33.93-23.18,1.51-46.57,1.05-69.77.89,3.75-23.25,6.92-46.69,12.29-69.64h-34.82l4.1-36.87h-31.75l-10.24,36.87h-33.79l6.36-36.65,34.75-1.1,6.02-33.92c12.25-.09,24.59.06,36.85-.02-2.05,11.53-5.51,23.01-6.14,34.82h69.64l6.14-34.81c-23.18.08-46.45-.15-69.63-.01,1.15-6.48,2.27-32.8,7.44-34.55,35.05-.36,70.17-.46,105.21-.27-3.66,23.14-10.75,46.06-12.29,69.64h34.82l12.28-69.62c-11.58-.07-23.23.05-34.81-.01ZM655.66,481.57h-34.82l-6.14,36.87h31.75c7.21-10.24,6.4-24.9,9.22-36.87Z"/>
    <path class="cls-1" d="M438.56,340.25l-7.17,34.85-2.31,1.85c-10.37-2.69-20.78,1.57-31.49.17l4.11-36.88h36.87Z"/>
    <path class="cls-1" d="M311.57,659.76l6.43-36.59,2.71-.41c10.93-1.94,22.06,4.5,31.8.13l-6.12,36.87h-34.82Z"/>
    <polygon class="cls-1" points="354.58 411.93 348.44 446.75 313.62 446.75 318.1 415.39 320.79 411.93 354.58 411.93"/>
  </g>
</svg>